<svg width="1200" height="520" xmlns="http://www.w3.org/2000/svg">

  <!-- Background -->
  <defs>
    <linearGradient id="bg" x1="0%" y1="0%" x2="100%" y2="0%">
      <stop offset="0%" stop-color="#e0f2fe"/>
      <stop offset="100%" stop-color="#f0f9ff"/>
    </linearGradient>
  </defs>

  <rect width="100%" height="100%" rx="24" fill="url(#bg)"/>

  <!-- Title -->
  <text x="50%" y="12%"
        text-anchor="middle"
        font-size="32"
        font-family="Arial, Helvetica, sans-serif"
        font-weight="600"
        fill="#0f172a">
    Languages and Tools
  </text>

  <!-- ===== ROW 1 ===== -->
  <image href="https://raw.githubusercontent.com/devicons/devicon/master/icons/bootstrap/bootstrap-plain-wordmark.svg" x="120" y="100" width="48" height="48"/>
  <image href="https://raw.githubusercontent.com/devicons/devicon/master/icons/c/c-original.svg" x="200" y="100" width="48" height="48"/>
  <image href="https://raw.githubusercontent.com/devicons/devicon/master/icons/css3/css3-original-wordmark.svg" x="280" y="100" width="48" height="48"/>
  <image href="https://raw.githubusercontent.com/devicons/devicon/master/icons/express/express-original-wordmark.svg" x="360" y="100" width="48" height="48"/>
  <image href="https://www.vectorlogo.zone/logos/figma/figma-icon.svg" x="440" y="100" width="48" height="48"/>
  <image href="https://www.vectorlogo.zone/logos/git-scm/git-scm-icon.svg" x="520" y="100" width="48" height="48"/>
  <image href="https://raw.githubusercontent.com/devicons/devicon/master/icons/html5/html5-original-wordmark.svg" x="600" y="100" width="48" height="48"/>
  <image href="https://raw.githubusercontent.com/devicons/devicon/master/icons/java/java-original.svg" x="680" y="100" width="48" height="48"/>

  <!-- ===== ROW 2 ===== -->
  <image href="https://raw.githubusercontent.com/devicons/devicon/master/icons/javascript/javascript-original.svg" x="120" y="180" width="48" height="48"/>
  <image href="https://raw.githubusercontent.com/devicons/devicon/master/icons/mongodb/mongodb-original-wordmark.svg" x="200" y="180" width="48" height="48"/>
  <image href="https://www.svgrepo.com/show/303229/microsoft-sql-server-logo.svg" x="280" y="180" width="48" height="48"/>
  <image href="https://raw.githubusercontent.com/devicons/devicon/master/icons/nestjs/nestjs-plain.svg" x="360" y="180" width="48" height="48"/>
  <image href="https://cdn.worldvectorlogo.com/logos/nextjs-2.svg" x="440" y="180" width="48" height="48"/>
  <image href="https://raw.githubusercontent.com/devicons/devicon/master/icons/nodejs/nodejs-original-wordmark.svg" x="520" y="180" width="48" height="48"/>
  <image href="https://raw.githubusercontent.com/devicons/devicon/master/icons/photoshop/photoshop-line.svg" x="600" y="180" width="48" height="48"/>
  <image href="https://www.vectorlogo.zone/logos/getpostman/getpostman-icon.svg" x="680" y="180" width="48" height="48"/>

  <!-- ===== ROW 3 ===== -->
  <image href="https://raw.githubusercontent.com/devicons/devicon/master/icons/python/python-original.svg" x="280" y="260" width="48" height="48"/>
  <image href="https://raw.githubusercontent.com/devicons/devicon/master/icons/react/react-original-wordmark.svg" x="360" y="260" width="48" height="48"/>

</svg>
